<svg fill="#000000" viewBox="0 0 24 24" width="50" height="44" id="gravity" data-name="Flat Color" xmlns="http://www.w3.org/2000/svg" class="icon flat-color"><g id="SVGRepo_bgCarrier" stroke-width="0"></g><g id="SVGRepo_tracerCarrier" stroke-linecap="round" stroke-linejoin="round"></g><g id="SVGRepo_iconCarrier"><path id="secondary" d="M16,11a1,1,0,0,1-1-1V4a1,1,0,0,1,2,0v6A1,1,0,0,1,16,11ZM8,11a1,1,0,0,1-1-1V4A1,1,0,0,1,9,4v6A1,1,0,0,1,8,11Zm4-1a1,1,0,0,1-1-1V3a1,1,0,0,1,2,0V9A1,1,0,0,1,12,10Z" style="fill: #3f6179;"></path><circle id="primary" cx="12" cy="17" r="5" style="fill: #507a95;"></circle></g></svg>